<svg width="0" height="0" class="hidden">
  <symbol xmlns="http://www.w3.org/2000/svg" viewBox="0 0 512 512" id="1496677265-2_84643">
    <path d="M68.8 167.4v322.4h77.9V167.4H68.8zm75.9 307.4H70.8v-7h73.9v7zm0-17.8H70.8v-7h73.9v7zm0-17.9H70.8v-7h73.9v7zm0-17.8H70.8v-7h73.9v7zm0-17.8H70.8v-7h73.9v7zm0-17.9H70.8v-7h73.9v7zm0-17.8H70.8v-7h73.9v7zm0-17.8H70.8v-7h73.9v7zm0-17.9H70.8v-7h73.9v7zm0-17.8H70.8v-7h73.9v7zm0-17.8H70.8v-7h73.9v7zm0-17.9H70.8v-7h73.9v7zm0-17.8H70.8v-7h73.9v7zm0-17.8H70.8v-7h73.9v7zm0-17.9H70.8v-7h73.9v7zm0-17.8H70.8v-7h73.9v7zm0-17.8H70.8v-7h73.9v7zm220.6-22.1v322.4h77.9V167.4h-77.9zm75.9 307.4h-73.9v-7h73.9v7zm0-17.8h-73.9v-7h73.9v7zm0-17.9h-73.9v-7h73.9v7zm0-17.8h-73.9v-7h73.9v7zm0-17.8h-73.9v-7h73.9v7zm0-17.9h-73.9v-7h73.9v7zm0-17.8h-73.9v-7h73.9v7zm0-17.8h-73.9v-7h73.9v7zm0-17.9h-73.9v-7h73.9v7zm0-17.8h-73.9v-7h73.9v7zm0-17.8h-73.9v-7h73.9v7zm0-17.9h-73.9v-7h73.9v7zm0-17.8h-73.9v-7h73.9v7zm0-17.8h-73.9v-7h73.9v7zm0-17.9h-73.9v-7h73.9v7zm0-17.8h-73.9v-7h73.9v7zm0-17.8h-73.9v-7h73.9v7zM274.5 329.6h27.1v22.8h-27.1zm31.6 53.1h27.1v22.8h-27.1zM243 329.6h27.1v22.8H243zm31.5 26.6h27.1V379h-27.1zm-63.1-26.6h27.1v22.8h-27.1zm94.7 26.6h27.1V379h-27.1zm-126.2 53H207V432h-27.1zm0 53.1H207v21.2h-27.1zm0-26.6H207v22.8h-27.1zm-26.2 0h21.8v22.8h-21.8zm26.2-79.5H207V379h-27.1zm0 26.5H207v22.8h-27.1zm31.5-26.5h27.1V379h-27.1zm63.1 26.5h27.1v22.8h-27.1zm31.6 26.5h27.1V432h-27.1zm-63.1 0h27.1V432H243zm-31.6-26.5h27.1v22.8h-27.1zm-57.7 26.5h21.8V432h-21.8zm89.3-26.5h27.1v22.8H243zm0-26.5h27.1V379H243zm31.5 53h27.1V432h-27.1zm-63.1 0h27.1V432h-27.1zm63.1 26.5h27.1v22.8h-27.1zm-63.1 0h27.1v22.8h-27.1zm31.6 0h27.1v22.8H243zm-63.1-133H207v23.2h-27.1zm-26.2 26.9h21.8v22.8h-21.8zm0 26.6h21.8V379h-21.8zm0 26.5h21.8v22.8h-21.8zm26.2-53.1H207v22.8h-27.1zm63.1-26.9h27.1v23.2H243zm-31.6 0h27.1v23.2h-27.1zm126.2 159.6h20.8v21.2h-20.8zM153.7 302.7h21.8v23.2h-21.8zm57.7 159.6h27.1v21.2h-27.1zm63.1-159.6h27.1v23.2h-27.1zm63.1 0h20.8v23.2h-20.8z"></path>
    <path d="M146.8 296.4v193.4h218.6V296.4H146.8zM361.9 487H150.2V299.2h211.7V487z"></path>
    <path d="M153.7 462.3h21.8v21.2h-21.8zm152.4-26.6h27.1v22.8h-27.1zm31.5 0h20.8v22.8h-20.8zm-31.5 26.6h27.1v21.2h-27.1zm-63.1 0h27.1v21.2H243zm63.1-159.6h27.1v23.2h-27.1zm-31.6 159.6h27.1v21.2h-27.1zm31.6-132.7h27.1v22.8h-27.1zm31.5 0h20.8v22.8h-20.8zm0 79.6h20.8V432h-20.8zm0-53h20.8V379h-20.8zm0 26.5h20.8v22.8h-20.8zm-190-215.3v128.8h86.3V167.4h-86.3zm4.7 6.5c0-1.3 1-2.3 2.3-2.3h29.6c1.3 0 2.3 1 2.3 2.3v32.3c0 1.3-1 2.3-2.3 2.3h-29.6c-1.3 0-2.3-1-2.3-2.3v-32.3zm.3 41.8c0-1.3 1-2.3 2.3-2.3h29.6c1.3 0 2.3 1 2.3 2.3V248c0 1.3-1 2.3-2.3 2.3h-29.6c-1.3 0-2.3-1-2.3-2.3v-32.3zm34.5 74c0 1.3-1 2.3-2.3 2.3h-29.6c-1.3 0-2.3-1-2.3-2.3v-32.3c0-1.3 1-2.3 2.3-2.3h29.6c1.3 0 2.3 1 2.3 2.3v32.3zm6.8-115.8c0-1.3 1-2.3 2.3-2.3h29.6c1.3 0 2.3 1 2.3 2.3v32.3c0 1.3-1 2.3-2.3 2.3h-29.6c-1.3 0-2.3-1-2.3-2.3v-32.3zm.4 41.8c0-1.3 1-2.3 2.3-2.3h29.6c1.3 0 2.3 1 2.3 2.3V248c0 1.3-1 2.3-2.3 2.3h-29.6c-1.3 0-2.3-1-2.3-2.3v-32.3zm34.5 74c0 1.3-1 2.3-2.3 2.3h-29.6c-1.3 0-2.3-1-2.3-2.3v-32.3c0-1.3 1-2.3 2.3-2.3h29.6c1.3 0 2.3 1 2.3 2.3v32.3zm49.3-122.3v128.8h86.3V167.4h-86.3zm5 6.7c0-1.3 1-2.3 2.3-2.3H315c1.3 0 2.3 1 2.3 2.3v32.3c0 1.3-1 2.3-2.3 2.3h-29.6c-1.3 0-2.3-1-2.3-2.3v-32.3zm.4 41.7c0-1.3 1-2.3 2.3-2.3h29.6c1.3 0 2.3 1 2.3 2.3v32.3c0 1.3-1 2.3-2.3 2.3h-29.6c-1.3 0-2.3-1-2.3-2.3v-32.3zm34.5 74.1c0 1.3-1 2.3-2.3 2.3h-29.6c-1.3 0-2.3-1-2.3-2.3v-32.3c0-1.3 1-2.3 2.3-2.3h29.6c1.3 0 2.3 1 2.3 2.3v32.3zm6.8-115.8c0-1.3 1-2.3 2.3-2.3h29.6c1.3 0 2.3 1 2.3 2.3v32.3c0 1.3-1 2.3-2.3 2.3h-29.6c-1.3 0-2.3-1-2.3-2.3v-32.3zm.3 41.7c0-1.3 1-2.3 2.3-2.3H357c1.3 0 2.3 1 2.3 2.3v32.3c0 1.3-1 2.3-2.3 2.3h-29.6c-1.3 0-2.3-1-2.3-2.3v-32.3zm34.6 74.1c0 1.3-1 2.3-2.3 2.3h-29.6c-1.3 0-2.3-1-2.3-2.3v-32.3c0-1.3 1-2.3 2.3-2.3h29.6c1.3 0 2.3 1 2.3 2.3v32.3zM235 252.6h18.5v11.2H235zm0-80.6h18.5v11.2H235zm0 67.1h18.5V250H235zm0 27.2h18.5v11.5H235zm0 14.1h18.5v10.8H235zm0 13.4h41.9v2.5H235zm0-108h18.5v10.6H235zm0 13.1h18.5v10.9H235zm0 26.9h18.5v10.8H235zm0-13.4h18.5v10.9H235zm21.1 26.7H277V250h-20.9zm0-67.1H277v11.2h-20.9zm0 26.9H277v10.9h-20.9zm0-13.1H277v10.6h-20.9zM235 167.4h41.9v2H235zm21.1 98.9H277v11.5h-20.9zm0 14.1H277v10.8h-20.9zm0-68H277v10.9h-20.9zm0 40.2H277v11.2h-20.9zm0-26.8H277v10.8h-20.9zM144.7 79.3v7.3l215-66-2.7-6zm0-9.7v7.3L356.1 12l-2.7-6zm87.1 31.9c-2.3 0-4.1.8-5.4 2.5-1.3 1.7-2 3.8-2 6.5v5.1c0 2.7.7 4.8 2 6.5 1.3 1.7 3.1 2.5 5.4 2.5 2.4 0 4.3-.8 5.7-2.5 1.4-1.7 2.1-3.8 2.1-6.5v-5.1c0-2.6-.7-4.8-2.1-6.5-1.4-1.7-3.3-2.5-5.7-2.5z"></path>
    <path d="M145.2 89.8l2.9 76.6h212.1V23.8l-215 66zm69.8 37.6h-3.9v-12.7h-13.9v12.7h-3.9V98.7h3.9v13h13.9v-13h3.9v28.7zm28.6-11.8c0 3.5-1.1 6.4-3.3 8.7-2.2 2.3-5 3.5-8.5 3.5-3.3 0-6.1-1.2-8.2-3.5-2.1-2.3-3.1-5.2-3.1-8.7v-5.1c0-3.5 1-6.4 3.1-8.7 2.1-2.3 4.8-3.5 8.2-3.5 3.5 0 6.3 1.2 8.5 3.5s3.3 5.2 3.3 8.7v5.1zm24.5-13.9h-9.5v25.6h-3.9v-25.6h-9.3v-3.1h22.7v3.1zm21.6 25.7H272V98.7h17.5v3.1h-13.6v9.3h11.8v3.1h-11.8v10.3h13.8v2.9zm22.4 0h-17.9V98.7h3.9v25.6h14v3.1zm-165.4 39l-77.9-.1 38.5-49.2zm296.5.1l-77.9-.1 39.1-49.2zM59.5 494.9h392.9V506H59.5z"></path>
  </symbol>
  <symbol xmlns="http://www.w3.org/2000/svg" viewBox="0 0 512 512" id="beach">
    <path d="M328 464a8 8 0 000-16h-64a8 8 0 000 16zm-304 0h64a8 8 0 000-16H24a8 8 0 000 16zm200 16a8 8 0 000 16h32a8 8 0 000-16zm-168 8a8 8 0 008 8h112a8 8 0 000-16H64a8 8 0 00-8 8z"></path>
    <path d="M472.833 202.217C459.655 195.628 442.313 192 424 192a133.936 133.936 0 00-16.323.99l45.98-45.981a8 8 0 000-11.313c-8.3-8.3-21.595-9.96-37.442-4.678-13.976 4.659-28.8 14.356-41.754 27.305q-3.387 3.387-6.461 6.936V104a8 8 0 00-8-8c-11.736 0-22.313 8.228-29.783 23.167C323.628 132.345 320 149.687 320 168a128.6 128.6 0 002.718 26.721A129.142 129.142 0 00296 192c-18.313 0-35.655 3.628-48.833 10.217C232.228 209.687 224 220.264 224 232a8 8 0 008 8h55.535c-17.06 24.332-20.651 48.845-7.839 61.657a8 8 0 0011.313 0l40.764-40.764A23.96 23.96 0 00368 265.869c.36.322.731.631 1.109.932 9.38 23.343 14.707 49.954 15.547 77.49-19.536 1.469-38.352 8.771-54.812 21.367-1 .766-1.988 1.556-2.967 2.357-44.939.3-85.4 18.523-107.032 47.985H24v16h336c32.051 0 56 12.671 56 24s-23.949 24-56 24a8 8 0 000 16c18.313 0 35.655-3.628 48.833-10.217C423.772 478.313 432 467.736 432 456c0-8.968-4.819-17.255-13.752-24H488a8 8 0 007.408-11.02c-9.206-22.585-23.471-41.715-41.252-55.322A107.989 107.989 0 00430.811 352H432c0-40.181-8.012-78.611-23.25-112H488a8 8 0 008-8c0-11.736-8.228-22.313-23.167-29.783zM352 115.737v72.989a81.176 81.176 0 00-5.71 14.26c-.485-.257-.957-.519-1.457-.769a76.118 76.118 0 00-4.071-1.872A106.939 106.939 0 01336 168c0-24.545 7.431-44.339 16-52.263zm-22.954 125.256l-41.079 41.078c-.46-10.125 6.01-26.1 19.885-42.071h21.524a23.56 23.56 0 00-.33.993zM243.737 224c7.924-8.569 27.718-16 52.263-16s44.339 7.431 52.263 16zM352 256a8 8 0 118-8 8.009 8.009 0 01-8 8zm8.5-43.368c1.886-12.752 11.441-29.166 25.27-42.995 17.357-17.358 36.594-26.108 48.27-25.642l-57.621 57.625c-.417.2-.842.392-1.252.6a53.186 53.186 0 00-14.667 10.412zM384 256a8 8 0 118-8 8.009 8.009 0 01-8 8zm-93.259 160h-49.752c16.533-16.258 41.331-27.394 68.795-30.852A137.934 137.934 0 00290.741 416zm153.692-37.636A112.675 112.675 0 01475.493 416H308.507a112.675 112.675 0 0131.06-37.636C355.267 366.35 373.4 360 392 360s36.733 6.35 52.433 18.364zm-28.5-31.386a98.117 98.117 0 00-15.263-2.586 249.179 249.179 0 00-12.7-72.726 23.97 23.97 0 0013.442-7.168 259.817 259.817 0 0114.518 82.48zM371.737 224c7.924-8.569 27.718-16 52.263-16s44.339 7.431 52.263 16z"></path>
    <path d="M216 448h-80a8 8 0 000 16h80a8 8 0 000-16zM144 64a40 40 0 1040 40 40.045 40.045 0 00-40-40zm0 64a24 24 0 1124-24 24.028 24.028 0 01-24 24zm8-88V24a8 8 0 00-16 0v16a8 8 0 0016 0zm80 64a8 8 0 00-8-8h-16a8 8 0 000 16h16a8 8 0 008-8zm-80 80v-16a8 8 0 00-16 0v16a8 8 0 0016 0zm-96-80a8 8 0 008 8h16a8 8 0 000-16H64a8 8 0 00-8 8zm48.4-50.912L93.088 41.775a8 8 0 00-11.313 11.313L93.088 64.4A8 8 0 10104.4 53.088zM194.912 64.4l11.313-11.314a8 8 0 00-11.313-11.313L183.6 53.088A8 8 0 00194.912 64.4zm0 101.825a8 8 0 0011.313-11.313L194.912 143.6a8 8 0 10-11.312 11.312zM81.775 154.912a8 8 0 1011.313 11.313l11.312-11.313A8 8 0 1093.088 143.6zM120 272a8.009 8.009 0 018 8 8 8 0 0016 0 8 8 0 0116 0 8 8 0 0016 0 23.988 23.988 0 00-40-17.874A23.988 23.988 0 0096 280a8 8 0 0016 0 8.009 8.009 0 018-8zm-88 56a8 8 0 0016 0 8 8 0 0116 0 8 8 0 0016 0 8 8 0 0116 0 8 8 0 0016 0 23.988 23.988 0 00-40-17.874A23.988 23.988 0 0032 328z"></path>
  </symbol>
  <symbol xmlns="http://www.w3.org/2000/svg" viewBox="0 0 512.043 512.043" id="aeroplane">
    <path d="M496.469 353.365l-197.781-197.76V67.904c0-13.845-3.072-27.797-9.131-40.811l-4.501-8.533C279.744 7.104 268.629 0 256.021 0s-23.723 7.104-28.8 18.069l-4.971 9.493c-5.824 12.544-8.896 26.475-8.896 40.341v87.701L15.637 353.323C5.568 363.392.021 376.768.021 391.019v25.003c0 3.904 2.133 7.488 5.547 9.344a10.6 10.6 0 0010.88-.384L217.493 296.15c1.984 32.277 4.672 59.221 7.957 92.011l3.392 33.6-74.688 49.344c-3.008 2.005-4.8 5.333-4.8 8.917v21.333c0 3.221 1.472 6.293 3.989 8.32a10.605 10.605 0 008.981 2.112l93.696-20.843 93.696 20.843c.768.171 1.536.256 2.304.256a10.66 10.66 0 006.677-2.347c2.517-2.048 3.989-5.12 3.989-8.341v-21.333c0-3.584-1.792-6.933-4.8-8.896l-74.688-49.28 3.392-33.707c3.285-32.747 5.973-59.669 7.957-91.947l201.045 128.789a10.613 10.613 0 0010.859.384 10.611 10.611 0 005.568-9.344v-25.003c.002-14.25-5.523-27.626-15.55-37.653z"></path>
  </symbol>
  <symbol fill="none" xmlns="http://www.w3.org/2000/svg" viewBox="0 0 21 21" id="instagram">
    <path d="M14.438 0H6.561A6.563 6.563 0 000 6.563v7.875A6.563 6.563 0 006.563 21h7.875A6.563 6.563 0 0021 14.437V6.564A6.563 6.563 0 0014.437 0zm4.593 14.438a4.599 4.599 0 01-4.593 4.593H6.561a4.599 4.599 0 01-4.593-4.593V6.561A4.599 4.599 0 016.562 1.97h7.875a4.599 4.599 0 014.594 4.593v7.875z" fill="#fff"></path>
    <path d="M10.5 5.25a5.25 5.25 0 100 10.5 5.25 5.25 0 000-10.5zm0 8.531A3.286 3.286 0 017.219 10.5 3.285 3.285 0 0110.5 7.219a3.285 3.285 0 013.281 3.281 3.286 3.286 0 01-3.281 3.281zm5.644-8.225a.7.7 0 100-1.4.7.7 0 000 1.4z" fill="#fff"></path>
  </symbol>
  <symbol fill="none" xmlns="http://www.w3.org/2000/svg" viewBox="0 0 25 25" id="twitter">
    <g clip-path="url(#clip0)">
      <path d="M25 4.748c-.93.408-1.92.679-2.953.81a5.097 5.097 0 002.255-2.833 10.246 10.246 0 01-3.25 1.24 5.124 5.124 0 00-8.866 3.505c0 .407.034.797.119 1.17C8.044 8.43 4.273 6.39 1.74 3.277a5.16 5.16 0 00-.702 2.59 5.13 5.13 0 002.277 4.26A5.061 5.061 0 011 9.497v.056a5.15 5.15 0 004.106 5.036 5.118 5.118 0 01-1.343.169c-.329 0-.66-.019-.97-.088.663 2.03 2.548 3.522 4.788 3.57a10.298 10.298 0 01-6.354 2.187c-.42 0-.824-.02-1.227-.07 2.27 1.463 4.96 2.3 7.862 2.3 9.432 0 14.588-7.813 14.588-14.585 0-.227-.008-.445-.019-.663A10.225 10.225 0 0025 4.75z" fill="#fff"></path>
    </g>
    <defs>
      <clipPath id="clip0">
        <path fill="#fff" d="M0 0h25v25H0z"></path>
      </clipPath>
    </defs>
  </symbol>
  <symbol fill="none" xmlns="http://www.w3.org/2000/svg" viewBox="0 0 27 27" id="youtube">
    <path d="M26.533 7.118c-.33-1.436-1.505-2.496-2.919-2.654-3.348-.373-6.736-.375-10.11-.373-3.373-.002-6.763 0-10.111.373C1.98 4.622.806 5.682.476 7.118.006 9.163 0 11.395 0 13.5c0 2.105 0 4.337.47 6.382.33 1.436 1.504 2.495 2.918 2.653 3.348.374 6.737.376 10.111.374 3.374.002 6.763 0 10.11-.374 1.413-.158 2.588-1.217 2.919-2.653.47-2.045.472-4.277.472-6.382 0-2.105.004-4.337-.467-6.382zM10.016 17.69V8.76l8.583 4.479-8.583 4.45z" fill="#fff"></path>
  </symbol>
  <symbol fill="none" xmlns="http://www.w3.org/2000/svg" viewBox="0 0 71 54" id="Travelling">
    <path d="M53.493 53.56c.501 0 .908-.39.908-.87s-.407-.87-.908-.87c-.502 0-.908.39-.908.87s.406.87.908.87zm.123-18.938l-2.393-6.089s.371-1.146-.62-1.067c-.99.079-3.63.949-3.63.949s-.908.079.33 1.304l2.145 6.445.702-.317-2.311-6.404s-.124-.435.33-.554c.454-.119 2.187-.83 2.352-.395.165.435 2.311 6.681 2.311 6.681l.784-.553z" fill="#3F3D56"></path>
    <path d="M47.179 38.812l4.622 13.245c.374.237.78.425 1.206.559.386.127.783.218 1.187.271.15.011.302 0 .449-.034 2.376-.455 10.528-4.631 10.528-4.631s-4.168-12.454-4.87-13.956c-.701-1.503-2.27-.95-2.27-.95s-7.92 2.05-9.057 2.43a2.563 2.563 0 00-1.3.93v.001c-1.155.672-.495 2.135-.495 2.135z" fill="#FFDE21"></path>
    <path opacity=".2" d="M50.497 35.267l.022.076c.358-.096.663.668.666.676L56.26 49.5l.078-.026-.644-1.71 6.913-2.925.544 1.498.078-.026-4.54-12.498-.003-.003c-.016-.025-.399-.598-.853-.483l.021.077c.38-.097.727.397.76.444l.96 2.645-7.266 2.276-1.046-2.777c-.013-.035-.334-.84-.765-.725zm9.105 1.301l.708 1.949-7.154 2.505-.82-2.178 7.266-2.276zm-5.601 6.697l-.817-2.169 7.153-2.504.703 1.934-7.04 2.74zm7.066-2.664l.77 2.12-7.027 2.695-.781-2.076 7.038-2.74zm-5.4 7.089l-.829-2.2 7.027-2.694.715 1.968-6.914 2.926zm-7.992-9.352c.412.633 5.034 13.877 5.034 13.877.086.143.185.277.298.4a6.56 6.56 0 001.188.272c.15.012.301 0 .448-.034-.284-.098-.918-.415-1.233-1.35-.412-1.225-4.951-14.153-4.951-14.153s.142-.975.515-1.603a2.563 2.563 0 00-1.3.93s-.412 1.029 0 1.661z" fill="#000"></path>
    <path d="M48.5 41.264l.453 1.344s-.371 2.649 1.568 4.388l.413 1.345-.427.01-.45-1.29s-1.496-1.729-1.506-4.316l-.382-1.481h.33zm7.778 12.316c.501 0 .908-.39.908-.87s-.407-.87-.908-.87c-.501 0-.908.39-.908.87s.407.87.908.87zm8.81-3.658c.502 0 .908-.39.908-.87s-.406-.87-.907-.87c-.502 0-.908.39-.908.87s.406.87.907.87z" fill="#3F3D56"></path>
    <path d="M32.483 12.042s-2.101.366-2.197 1.19a9.25 9.25 0 000 1.739l2.197-2.929z" fill="#575A89"></path>
    <path d="M44.517 31.26s-6.113 2.104-10.124.274c-4.012-1.83-8.883-4.118-8.883-4.118s-2.388.183-2.101-1.19c.286-1.372 2.196-9.334 6.59-11.987 0 0 2.674-3.295 4.203-3.112 1.528.183 7.45 13.727 7.45 13.727l2.865 6.405z" fill="#575A89"></path>
    <path opacity=".2" d="M44.517 31.26s-6.113 2.104-10.124.274c-4.012-1.83-8.883-4.118-8.883-4.118s-2.388.183-2.101-1.19c.286-1.372 2.196-9.334 6.59-11.987 0 0 2.674-3.295 4.203-3.112 1.528.183 7.45 13.727 7.45 13.727l2.865 6.405z" fill="#000"></path>
    <path d="M47.765 26.318l.382.915s2.483 1.464 1.433 2.47c-1.051 1.008-2.633-1.692-2.633-1.692l-.615-1.144 1.433-.549zM26.848 42.699l-.382 6.314 2.006.823.764-7.595-2.388.458zm8.119-.001l2.674 3.295.764 2.196 1.91-.092.478-2.196-2.674-2.562-3.152-.64zm-.24-32.348c1.425 0 2.58-1.107 2.58-2.472 0-1.364-1.155-2.47-2.58-2.47-1.424 0-2.579 1.106-2.579 2.47 0 1.365 1.155 2.471 2.58 2.471z" fill="#A0616A"></path>
    <path d="M34.202 9.754l.191 2.288 3.057-.915s-1.147-1.739-.86-2.196l-2.388.823z" fill="#A0616A"></path>
    <path d="M34.201 11.127s1.81.458 2.863-.64l2.2 1.006-2.866 10.25-6.017-1.556.955-2.013s-1.242-1.373.096-2.654c0 0 .286-2.563 1.146-3.112a12.19 12.19 0 001.623-1.28z" fill="#D0CDE1"></path>
    <path d="M37.02 10.44s-3.248 2.472.286 9.793c3.534 7.32 6.495 13.543 7.64 13.177 1.147-.366 5.063-3.203 3.726-4.21-1.337-1.006-6.973-4.209-7.737-8.418-.764-4.21 1.05-8.51 1.05-8.51L37.02 10.44z" fill="#FFDE21"></path>
    <path d="M40.601 13.232L48.815 26.5l-2.292.915-7.068-9.151 1.146-5.033z" fill="#FFDE21"></path>
    <path d="M30.86 19.912h-.67l-2.483 5.125s-4.68 13.544-4.202 16.289c.478 2.745 18.243 2.376 17.288 2.288-.91-.084-5.639-20.951-4.25-22.1l-5.683-1.602zM27.134 48.28s-.19-.732-.955-.732c-.764 0-.764 1.007-.764 1.007l-2.197 1.922s-1.91 2.288.573 2.288c2.484 0 2.484-.55 2.484-.55s.668-.64 1.241-.274c.573.366 1.91-.366 1.72-.732-.191-.366-.477-2.734-.668-2.328-.192.406-1.434-.6-1.434-.6zm12.703-1.098s.19-.091-.765 0c-.955.092-1.337 0-1.337 0l.669 2.471s-.573 4.21 1.337 3.844c1.91-.367 1.91-2.929 1.91-2.929s-.286-2.287-.095-2.47c.19-.184.095-2.654-.191-2.654-.287 0-1.67-.593-1.67-.593s.906 2.331.142 2.331zM34.806 8.026c-.16-.236-.08-.558-.192-.819-.177-.41-.726-.505-1.187-.543a3.691 3.691 0 00-.92.003.904.904 0 00-.373.15.856.856 0 00-.264.293c-.068.13-.051-.28-.007-.807a2.492 2.492 0 01.632-1.457 2.68 2.68 0 011.426-.826c.56-.124 1.14-.215 1.711-.15.572.064 1.142.3 1.5.733.162.198.278.432.46.614.32.32.794.436 1.23.584.5.155.959.409 1.348.746.377.347.644.823.652 1.324.01.584-.379 1.188-1.004 1.303a.718.718 0 00-.3.124c-.597.443.084.907.08 1.407-.004.416-.488.688-.923.707a1.8 1.8 0 01-1.12-.363 1.668 1.668 0 01-.623-.963c-.065-.342-.015-.694.028-1.039.049-.395-.84-1.325-.253-.643.115.13.192.285.224.452.098.545-.42.728-.746 1.03-.179.17-.304.386-.362.622-.058.236-.046.482.035.712a1.476 1.476 0 01-.496-.895 1.443 1.443 0 01.213-.991c.105-.155.24-.29.34-.447.156-.246.198-.781-.237-.767-.31.01-.633.259-.872-.094z" fill="#2F2E41"></path>
  </symbol>
</svg>